<mxfile host="app.diagrams.net" modified="2023-07-23T07:42:45.412Z" agent="Mozilla/5.0 (Windows NT 6.3; Win64; x64) AppleWebKit/537.36 (KHTML, like Gecko) Chrome/109.0.0.0 Safari/537.36 OPR/95.0.0.0" version="21.6.5" etag="l1vHm0f_tSI4fc3ZZ6ze" type="github">
  <diagram name="Page-1" id="9MKAAIotaC4ABMXr4miC">
    <mxGraphModel>
      <root>
        <mxCell id="0" />
        <mxCell id="1" parent="0" />
      </root>
    </mxGraphModel>
  </diagram>
</mxfile>
